SourceSansDemo.ufo
<glyph name="dollar" format="1" >
	<unicode hex="000024"/>
	<advance width="497"/>
	<outline>
		<contour>
			<point x="222" y="748" type="line"/>
			<point x="222" y="647" type="line"/>
			<point x="135" y="634" />
			<point x="77" y="570" />
			<point x="77" y="481" type="curve"/>
			<point x="77" y="303" />
			<point x="356" y="305" />
			<point x="356" y="165" type="curve"/>
			<point x="356" y="100" />
			<point x="319" y="56" />
			<point x="245" y="56" type="curve"/>
			<point x="184" y="56" />
			<point x="133" y="80" />
			<point x="91" y="120" type="curve"/>
			<point x="52" y="69" type="line"/>
			<point x="92" y="23" />
			<point x="154" y="-6" />
			<point x="222" y="-11" type="curve"/>
			<point x="222" y="-110" type="line"/>
			<point x="282" y="-110" type="line"/>
			<point x="282" y="-9" type="line"/>
			<point x="377" y="5" />
			<point x="437" y="73" />
			<point x="437" y="171" type="curve"/>
			<point x="437" y="361" />
			<point x="158" y="356" />
			<point x="158" y="485" type="curve"/>
			<point x="158" y="542" />
			<point x="197" y="581" />
			<point x="257" y="581" type="curve"/>
			<point x="311" y="581" />
			<point x="348" y="562" />
			<point x="380" y="526" type="curve"/>
			<point x="424" y="571" type="line"/>
			<point x="390" y="613" />
			<point x="346" y="642" />
			<point x="282" y="649" type="curve"/>
			<point x="282" y="748" type="line"/>
		</contour>
	</outline>
</glyph>
<glyph name="colon" format="1" >
	<unicode hex="00003A"/>
	<advance width="249"/>
	<outline>
		<contour>
			<point x="125" y="349" type="curve"/>
			<point x="157" y="349" />
			<point x="184" y="375" />
			<point x="184" y="411" type="curve"/>
			<point x="184" y="449" />
			<point x="157" y="475" />
			<point x="125" y="475" type="curve"/>
			<point x="92" y="475" />
			<point x="65" y="449" />
			<point x="65" y="411" type="curve"/>
			<point x="65" y="375" />
			<point x="92" y="349" />
		</contour>
		<contour>
			<point x="125" y="-12" type="curve"/>
			<point x="157" y="-12" />
			<point x="184" y="14" />
			<point x="184" y="50" type="curve"/>
			<point x="184" y="88" />
			<point x="157" y="114" />
			<point x="125" y="114" type="curve"/>
			<point x="92" y="114" />
			<point x="65" y="88" />
			<point x="65" y="50" type="curve"/>
			<point x="65" y="14" />
			<point x="92" y="-12" />
		</contour>
	</outline>
</glyph>
<glyph name="equal" format="1" >
	<unicode hex="00003D"/>
	<advance width="497"/>
	<outline>
		<contour>
			<point x="34" y="468" type="line"/>
			<point x="34" y="406" type="line"/>
			<point x="463" y="406" type="line"/>
			<point x="463" y="468" type="line"/>
		</contour>
		<contour>
			<point x="34" y="254" type="line"/>
			<point x="34" y="192" type="line"/>
			<point x="463" y="192" type="line"/>
			<point x="463" y="254" type="line"/>
		</contour>
	</outline>
</glyph>
<glyph name="C" format="1" >
	<unicode hex="000043"/>
	<advance width="571"/>
	<outline>
		<contour>
			<point x="338" y="-12" type="curve"/>
			<point x="422" y="-12" />
			<point x="486" y="22" />
			<point x="539" y="83" type="curve"/>
			<point x="493" y="133" type="line"/>
			<point x="451" y="86" />
			<point x="404" y="61" />
			<point x="341" y="61" type="curve"/>
			<point x="217" y="61" />
			<point x="138" y="165" />
			<point x="138" y="330" type="curve"/>
			<point x="138" y="493" />
			<point x="220" y="595" />
			<point x="344" y="595" type="curve"/>
			<point x="400" y="595" />
			<point x="443" y="572" />
			<point x="478" y="535" type="curve"/>
			<point x="523" y="587" type="line"/>
			<point x="485" y="630" />
			<point x="423" y="668" />
			<point x="343" y="668" type="curve"/>
			<point x="176" y="668" />
			<point x="52" y="539" />
			<point x="52" y="328" type="curve"/>
			<point x="52" y="114" />
			<point x="174" y="-12" />
		</contour>
	</outline>
</glyph>
<glyph name="J" format="1" >
	<unicode hex="00004A"/>
	<advance width="480"/>
	<outline>
		<contour>
			<point x="207" y="-12" type="curve"/>
			<point x="339" y="-12" />
			<point x="393" y="80" />
			<point x="393" y="195" type="curve"/>
			<point x="393" y="656" type="line"/>
			<point x="309" y="656" type="line"/>
			<point x="309" y="203" type="line"/>
			<point x="309" y="102" />
			<point x="274" y="61" />
			<point x="202" y="61" type="curve"/>
			<point x="154" y="61" />
			<point x="117" y="83" />
			<point x="89" y="131" type="curve"/>
			<point x="33" y="94" type="line"/>
			<point x="69" y="23" />
			<point x="128" y="-12" />
		</contour>
	</outline>
</glyph>
<glyph name="P" format="1" >
	<unicode hex="000050"/>
	<advance width="566"/>
	<outline>
		<contour>
			<point x="90" y="656" type="line"/>
			<point x="90" y="0" type="line"/>
			<point x="173" y="0" type="line"/>
			<point x="173" y="260" type="line"/>
			<point x="281" y="260" type="line"/>
			<point x="425" y="260" />
			<point x="523" y="325" />
			<point x="523" y="463" type="curve"/>
			<point x="523" y="607" />
			<point x="424" y="656" />
			<point x="277" y="656" type="curve"/>
		</contour>
		<contour>
			<point x="271" y="328" type="curve"/>
			<point x="173" y="328" type="line"/>
			<point x="173" y="589" type="line"/>
			<point x="267" y="589" type="line"/>
			<point x="382" y="589" />
			<point x="440" y="558" />
			<point x="440" y="463" type="curve"/>
			<point x="440" y="370" />
			<point x="385" y="328" />
		</contour>
	</outline>
</glyph>
<glyph name="V" format="1" >
	<unicode hex="000056"/>
	<advance width="515"/>
	<outline>
		<contour>
			<point x="0" y="656" type="line"/>
			<point x="206" y="0" type="line"/>
			<point x="303" y="0" type="line"/>
			<point x="515" y="656" type="line"/>
			<point x="430" y="656" type="line"/>
			<point x="321" y="302" type="line"/>
			<point x="298" y="224" />
			<point x="282" y="162" />
			<point x="258" y="85" type="curve"/>
			<point x="254" y="85" type="line"/>
			<point x="229" y="162" />
			<point x="213" y="224" />
			<point x="190" y="302" type="curve"/>
			<point x="89" y="656" type="line"/>
		</contour>
	</outline>
</glyph>
<glyph name="e" format="1" >
	<unicode hex="000065"/>
	<advance width="496"/>
	<outline>
		<contour>
			<point x="458" y="270" type="curve"/>
			<point x="458" y="408" />
			<point x="390" y="498" />
			<point x="265" y="498" type="curve"/>
			<point x="153" y="498" />
			<point x="45" y="401" />
			<point x="45" y="243" type="curve"/>
			<point x="45" y="82" />
			<point x="148" y="-12" />
			<point x="279" y="-12" type="curve"/>
			<point x="345" y="-12" />
			<point x="397" y="9" />
			<point x="440" y="38" type="curve"/>
			<point x="410" y="92" type="line"/>
			<point x="376" y="69" />
			<point x="335" y="55" />
			<point x="289" y="55" type="curve"/>
			<point x="207" y="55" />
			<point x="137" y="112" />
			<point x="129" y="221" type="curve"/>
			<point x="454" y="221" type="line"/>
			<point x="457" y="237" />
			<point x="458" y="253" />
		</contour>
		<contour>
			<point x="131" y="286" type="line"/>
			<point x="144" y="390" />
			<point x="206" y="431" />
			<point x="266" y="431" type="curve"/>
			<point x="341" y="431" />
			<point x="384" y="380" />
			<point x="384" y="286" type="curve"/>
		</contour>
	</outline>
</glyph>
<glyph name="i" format="1" >
	<unicode hex="000069"/>
	<advance width="246"/>
	<outline>
		<contour>
			<point x="123" y="586" type="curve"/>
			<point x="155" y="586" />
			<point x="178" y="607" />
			<point x="178" y="640" type="curve"/>
			<point x="178" y="672" />
			<point x="155" y="694" />
			<point x="123" y="694" type="curve"/>
			<point x="91" y="694" />
			<point x="68" y="672" />
			<point x="68" y="640" type="curve"/>
			<point x="68" y="607" />
			<point x="91" y="586" />
		</contour>
		<contour>
			<point x="82" y="486" type="line"/>
			<point x="82" y="0" type="line"/>
			<point x="164" y="0" type="line"/>
			<point x="164" y="486" type="line"/>
		</contour>
	</outline>
</glyph>
<glyph name="j" format="1" >
	<unicode hex="00006A"/>
	<advance width="247"/>
	<outline>
		<contour>
			<point x="123" y="586" type="curve"/>
			<point x="155" y="586" />
			<point x="178" y="607" />
			<point x="178" y="640" type="curve"/>
			<point x="178" y="672" />
			<point x="155" y="694" />
			<point x="123" y="694" type="curve"/>
			<point x="91" y="694" />
			<point x="68" y="672" />
			<point x="68" y="640" type="curve"/>
			<point x="68" y="607" />
			<point x="91" y="586" />
		</contour>
		<contour>
			<point x="32" y="-217" type="curve"/>
			<point x="129" y="-217" />
			<point x="165" y="-154" />
			<point x="165" y="-55" type="curve"/>
			<point x="165" y="486" type="line"/>
			<point x="83" y="486" type="line"/>
			<point x="83" y="-55" type="line"/>
			<point x="83" y="-114" />
			<point x="71" y="-150" />
			<point x="23" y="-150" type="curve"/>
			<point x="7" y="-150" />
			<point x="-11" y="-146" />
			<point x="-23" y="-142" type="curve"/>
			<point x="-40" y="-203" type="line"/>
			<point x="-23" y="-211" />
			<point x="3" y="-217" />
		</contour>
	</outline>
</glyph>
<glyph name="k" format="1" >
	<unicode hex="00006B"/>
	<advance width="495"/>
	<outline>
		<contour>
			<point x="82" y="712" type="line"/>
			<point x="82" y="0" type="line"/>
			<point x="164" y="0" type="line"/>
			<point x="164" y="128" type="line"/>
			<point x="254" y="234" type="line"/>
			<point x="396" y="0" type="line"/>
			<point x="486" y="0" type="line"/>
			<point x="302" y="290" type="line"/>
			<point x="464" y="486" type="line"/>
			<point x="372" y="486" type="line"/>
			<point x="166" y="231" type="line"/>
			<point x="164" y="231" type="line"/>
			<point x="164" y="712" type="line"/>
		</contour>
	</outline>
</glyph>
<glyph name="l" format="1" >
	<unicode hex="00006C"/>
	<advance width="255"/>
	<outline>
		<contour>
			<point x="169" y="-12" type="curve"/>
			<point x="189" y="-12" />
			<point x="205" y="-9" />
			<point x="216" y="-3" type="curve"/>
			<point x="205" y="58" type="line"/>
			<point x="197" y="56" />
			<point x="193" y="56" />
			<point x="188" y="56" type="curve"/>
			<point x="175" y="56" />
			<point x="164" y="65" />
			<point x="164" y="92" type="curve"/>
			<point x="164" y="712" type="line"/>
			<point x="82" y="712" type="line"/>
			<point x="82" y="98" type="line"/>
			<point x="82" y="27" />
			<point x="107" y="-12" />
		</contour>
	</outline>
</glyph>
<glyph name="t" format="1" >
	<unicode hex="000074"/>
	<advance width="338"/>
	<outline>
		<contour>
			<point x="235" y="-12" type="curve"/>
			<point x="268" y="-12" />
			<point x="300" y="-3" />
			<point x="326" y="9" type="curve"/>
			<point x="309" y="67" type="line"/>
			<point x="290" y="58" />
			<point x="271" y="55" />
			<point x="254" y="55" type="curve"/>
			<point x="198" y="55" />
			<point x="179" y="89" />
			<point x="179" y="149" type="curve"/>
			<point x="179" y="419" type="line"/>
			<point x="310" y="419" type="line"/>
			<point x="310" y="486" type="line"/>
			<point x="179" y="486" type="line"/>
			<point x="179" y="642" type="line"/>
			<point x="110" y="642" type="line"/>
			<point x="100" y="486" type="line"/>
			<point x="24" y="481" type="line"/>
			<point x="24" y="419" type="line"/>
			<point x="96" y="419" type="line"/>
			<point x="96" y="150" type="line"/>
			<point x="96" y="54" />
			<point x="131" y="-12" />
		</contour>
	</outline>
</glyph>
<glyph name="quoteleft" format="1" >
	<unicode hex="002018"/>
	<advance width="249"/>
	<outline>
		<contour>
			<point x="120" y="435" type="curve"/>
			<point x="151" y="435" />
			<point x="173" y="456" />
			<point x="173" y="491" type="curve"/>
			<point x="173" y="523" />
			<point x="147" y="541" />
			<point x="120" y="541" type="curve"/>
			<point x="117" y="541" />
			<point x="114" y="541" />
			<point x="111" y="540" type="curve"/>
			<point x="111" y="596" />
			<point x="136" y="631" />
			<point x="187" y="664" type="curve"/>
			<point x="163" y="703" type="line"/>
			<point x="94" y="663" />
			<point x="57" y="605" />
			<point x="57" y="526" type="curve"/>
			<point x="57" y="468" />
			<point x="80" y="435" />
		</contour>
	</outline>
</glyph>
<glyph name="eight.numr" format="1" >
	<advance width="367"/>
	<outline>
		<contour>
			<point x="182" y="254" type="curve"/>
			<point x="261" y="254" />
			<point x="320" y="303" />
			<point x="320" y="366" type="curve"/>
			<point x="320" y="413" />
			<point x="292" y="444" />
			<point x="247" y="467" type="curve"/>
			<point x="247" y="471" type="line"/>
			<point x="274" y="489" />
			<point x="307" y="520" />
			<point x="307" y="565" type="curve"/>
			<point x="307" y="628" />
			<point x="252" y="668" />
			<point x="182" y="668" type="curve"/>
			<point x="115" y="668" />
			<point x="61" y="627" />
			<point x="61" y="565" type="curve"/>
			<point x="61" y="524" />
			<point x="85" y="498" />
			<point x="119" y="476" type="curve"/>
			<point x="119" y="472" type="line"/>
			<point x="81" y="450" />
			<point x="45" y="412" />
			<point x="45" y="363" type="curve"/>
			<point x="45" y="304" />
			<point x="100" y="254" />
		</contour>
		<contour>
			<point x="205" y="489" type="curve"/>
			<point x="158" y="504" />
			<point x="120" y="524" />
			<point x="120" y="564" type="curve"/>
			<point x="120" y="596" />
			<point x="148" y="619" />
			<point x="182" y="619" type="curve"/>
			<point x="218" y="619" />
			<point x="247" y="597" />
			<point x="247" y="563" type="curve"/>
			<point x="247" y="537" />
			<point x="234" y="511" />
		</contour>
		<contour>
			<point x="182" y="301" type="curve"/>
			<point x="136" y="301" />
			<point x="105" y="334" />
			<point x="105" y="369" type="curve"/>
			<point x="105" y="401" />
			<point x="124" y="429" />
			<point x="159" y="450" type="curve"/>
			<point x="212" y="428" />
			<point x="260" y="416" />
			<point x="260" y="368" type="curve"/>
			<point x="260" y="331" />
			<point x="225" y="301" />
		</contour>
	</outline>
</glyph>
<glyph name="f_f_l" format="1" >
	<advance width="832"/>
	<outline>
		<contour>
			<point x="381" y="563" type="curve"/>
			<point x="381" y="486" type="line"/>
			<point x="178" y="486" type="line"/>
			<point x="178" y="548" type="line"/>
			<point x="178" y="612" />
			<point x="206" y="647" />
			<point x="254" y="647" type="curve"/>
			<point x="278" y="647" />
			<point x="298" y="643" />
			<point x="319" y="634" type="curve"/>
			<point x="336" y="696" type="line"/>
			<point x="312" y="707" />
			<point x="279" y="714" />
			<point x="247" y="714" type="curve"/>
			<point x="146" y="714" />
			<point x="96" y="651" />
			<point x="96" y="550" type="curve"/>
			<point x="96" y="486" type="line"/>
			<point x="30" y="481" type="line"/>
			<point x="30" y="419" type="line"/>
			<point x="96" y="419" type="line"/>
			<point x="96" y="0" type="line"/>
			<point x="178" y="0" type="line"/>
			<point x="178" y="419" type="line"/>
			<point x="381" y="419" type="line"/>
			<point x="381" y="0" type="line"/>
			<point x="463" y="0" type="line"/>
			<point x="463" y="419" type="line"/>
			<point x="566" y="419" type="line"/>
			<point x="566" y="486" type="line"/>
			<point x="463" y="486" type="line"/>
			<point x="463" y="563" type="line"/>
			<point x="463" y="625" />
			<point x="485" y="657" />
			<point x="531" y="657" type="curve"/>
			<point x="549" y="657" />
			<point x="568" y="653" />
			<point x="586" y="645" type="curve"/>
			<point x="604" y="708" type="line"/>
			<point x="582" y="717" />
			<point x="553" y="724" />
			<point x="523" y="724" type="curve"/>
			<point x="426" y="724" />
			<point x="381" y="662" />
		</contour>
		<contour>
			<point x="782" y="58" type="line"/>
			<point x="774" y="56" />
			<point x="770" y="56" />
			<point x="765" y="56" type="curve"/>
			<point x="752" y="56" />
			<point x="741" y="65" />
			<point x="741" y="92" type="curve"/>
			<point x="741" y="712" type="line"/>
			<point x="659" y="712" type="line"/>
			<point x="659" y="98" type="line"/>
			<point x="659" y="27" />
			<point x="684" y="-12" />
			<point x="746" y="-12" type="curve"/>
			<point x="766" y="-12" />
			<point x="782" y="-9" />
			<point x="793" y="-3" type="curve"/>
		</contour>
	</outline>
</glyph>
<glyph name="f_l" format="1" >
	<advance width="547"/>
	<outline>
		<contour>
			<point x="96" y="563" type="curve"/>
			<point x="96" y="486" type="line"/>
			<point x="30" y="481" type="line"/>
			<point x="30" y="419" type="line"/>
			<point x="96" y="419" type="line"/>
			<point x="96" y="0" type="line"/>
			<point x="178" y="0" type="line"/>
			<point x="178" y="419" type="line"/>
			<point x="281" y="419" type="line"/>
			<point x="281" y="486" type="line"/>
			<point x="178" y="486" type="line"/>
			<point x="178" y="563" type="line"/>
			<point x="178" y="625" />
			<point x="200" y="657" />
			<point x="246" y="657" type="curve"/>
			<point x="264" y="657" />
			<point x="281" y="654" />
			<point x="301" y="648" type="curve"/>
			<point x="319" y="708" type="line"/>
			<point x="298" y="717" />
			<point x="268" y="724" />
			<point x="238" y="724" type="curve"/>
			<point x="141" y="724" />
			<point x="96" y="662" />
		</contour>
		<contour>
			<point x="497" y="58" type="line"/>
			<point x="489" y="56" />
			<point x="485" y="56" />
			<point x="480" y="56" type="curve"/>
			<point x="467" y="56" />
			<point x="456" y="65" />
			<point x="456" y="92" type="curve"/>
			<point x="456" y="712" type="line"/>
			<point x="374" y="712" type="line"/>
			<point x="374" y="98" type="line"/>
			<point x="374" y="27" />
			<point x="399" y="-12" />
			<point x="461" y="-12" type="curve"/>
			<point x="481" y="-12" />
			<point x="497" y="-9" />
			<point x="508" y="-3" type="curve"/>
		</contour>
	</outline>
</glyph>
<glyph name="seven.numr" format="1" >
	<advance width="367"/>
	<outline>
		<contour>
			<point x="131" y="266" type="curve"/>
			<point x="198" y="266" type="line"/>
			<point x="206" y="402" />
			<point x="228" y="499" />
			<point x="323" y="620" type="curve"/>
			<point x="323" y="656" type="line"/>
			<point x="50" y="656" type="line"/>
			<point x="50" y="601" type="line"/>
			<point x="251" y="601" type="line"/>
			<point x="171" y="492" />
			<point x="139" y="401" />
		</contour>
	</outline>
</glyph>
<glyph name="three.numr" format="1" >
	<advance width="367"/>
	<outline>
		<contour>
			<point x="180" y="254" type="curve"/>
			<point x="256" y="254" />
			<point x="319" y="299" />
			<point x="319" y="371" type="curve"/>
			<point x="319" y="423" />
			<point x="279" y="456" />
			<point x="235" y="467" type="curve"/>
			<point x="275" y="486" />
			<point x="303" y="517" />
			<point x="303" y="563" type="curve"/>
			<point x="303" y="629" />
			<point x="246" y="668" />
			<point x="179" y="668" type="curve"/>
			<point x="125" y="668" />
			<point x="85" y="643" />
			<point x="51" y="604" type="curve"/>
			<point x="90" y="570" type="line"/>
			<point x="112" y="597" />
			<point x="140" y="617" />
			<point x="169" y="617" type="curve"/>
			<point x="212" y="617" />
			<point x="240" y="592" />
			<point x="240" y="555" type="curve"/>
			<point x="240" y="515" />
			<point x="201" y="485" />
			<point x="134" y="485" type="curve"/>
			<point x="134" y="444" type="line"/>
			<point x="210" y="444" />
			<point x="255" y="420" />
			<point x="255" y="375" type="curve"/>
			<point x="255" y="330" />
			<point x="219" y="305" />
			<point x="177" y="305" type="curve"/>
			<point x="136" y="305" />
			<point x="102" y="327" />
			<point x="78" y="363" type="curve"/>
			<point x="35" y="330" type="line"/>
			<point x="65" y="286" />
			<point x="117" y="254" />
		</contour>
	</outline>
</glyph>
<glyph name="two.numr" format="1" >
	<advance width="367"/>
	<outline>
		<contour>
			<point x="52" y="303" type="curve"/>
			<point x="52" y="266" type="line"/>
			<point x="320" y="266" type="line"/>
			<point x="320" y="321" type="line"/>
			<point x="155" y="321" type="line"/>
			<point x="238" y="406" />
			<point x="300" y="467" />
			<point x="300" y="542" type="curve"/>
			<point x="300" y="624" />
			<point x="248" y="668" />
			<point x="170" y="668" type="curve"/>
			<point x="117" y="668" />
			<point x="70" y="637" />
			<point x="40" y="592" type="curve"/>
			<point x="78" y="557" type="line"/>
			<point x="100" y="589" />
			<point x="129" y="614" />
			<point x="162" y="614" type="curve"/>
			<point x="208" y="614" />
			<point x="237" y="583" />
			<point x="237" y="532" type="curve"/>
			<point x="237" y="473" />
			<point x="173" y="412" />
		</contour>
	</outline>
</glyph>
<glyph name="zero.numr" format="1" >
	<advance width="367"/>
	<outline>
		<contour>
			<point x="184" y="254" type="curve"/>
			<point x="273" y="254" />
			<point x="333" y="329" />
			<point x="333" y="462" type="curve"/>
			<point x="333" y="593" />
			<point x="273" y="668" />
			<point x="184" y="668" type="curve"/>
			<point x="94" y="668" />
			<point x="35" y="593" />
			<point x="35" y="462" type="curve"/>
			<point x="35" y="329" />
			<point x="94" y="254" />
		</contour>
		<contour>
			<point x="184" y="305" type="curve"/>
			<point x="132" y="305" />
			<point x="97" y="358" />
			<point x="97" y="462" type="curve"/>
			<point x="97" y="566" />
			<point x="132" y="617" />
			<point x="184" y="617" type="curve"/>
			<point x="235" y="617" />
			<point x="270" y="566" />
			<point x="270" y="462" type="curve"/>
			<point x="270" y="358" />
			<point x="235" y="305" />
		</contour>
	</outline>
</glyph>
